<svg width="21" height="20" viewBox="0 0 21 20" fill="none" xmlns="http://www.w3.org/2000/svg">
<path d="M14.3903 9.58333C17.0353 9.58333 19.182 7.43667 19.182 4.79167C19.182 2.14667 17.0353 0 14.3903 0C11.7453 0 9.59867 2.14667 9.59867 4.79167C9.59867 7.43667 11.7453 9.58333 14.3903 9.58333ZM19.6133 14.95C19.2395 14.5667 18.7699 14.375 18.2237 14.375H11.5153L9.522 13.6754L9.83825 12.7746L11.5153 13.4167H14.1987C14.5341 13.4167 14.8024 13.2825 15.0228 13.0621C15.2432 12.8417 15.3487 12.5733 15.3487 12.2763C15.3487 11.7588 15.0995 11.4042 14.6012 11.2029L7.63408 8.625H5.76533V17.25L12.4737 19.1667L20.1691 16.2917C20.1787 15.7838 19.987 15.3333 19.6133 14.95ZM3.84867 8.625H0V19.1667H3.84867V8.625Z" fill="#A8A5A0"/>
</svg>
