<svg width="20" height="20" viewBox="0 0 20 20" fill="none" xmlns="http://www.w3.org/2000/svg">
<path d="M7.117 0H12.383C13.475 0 14.341 -7.82311e-08 15.038 0.0569999C15.752 0.115 16.355 0.237 16.907 0.517C17.8006 0.972845 18.527 1.69992 18.982 2.594C19.263 3.144 19.385 3.748 19.443 4.462C19.5 5.159 19.5 6.025 19.5 7.117V12.383C19.5 13.475 19.5 14.341 19.443 15.038C19.385 15.752 19.263 16.355 18.983 16.907C18.5274 17.8005 17.8007 18.5268 16.907 18.982C16.355 19.263 15.752 19.385 15.038 19.443C14.341 19.5 13.475 19.5 12.383 19.5H7.117C6.025 19.5 5.159 19.5 4.462 19.443C3.748 19.385 3.145 19.263 2.594 18.983C1.70014 18.5276 0.973414 17.8009 0.518 16.907C0.237 16.355 0.115 15.752 0.0569999 15.038C-7.82311e-08 14.341 0 13.475 0 12.383V7.117C0 6.025 -7.82311e-08 5.159 0.0569999 4.462C0.115 3.748 0.237 3.145 0.517 2.594C0.972675 1.69999 1.69977 0.973244 2.594 0.518C3.144 0.237 3.748 0.115 4.462 0.0569999C5.159 -7.82311e-08 6.025 0 7.117 0ZM6 5.25C6 5.664 6.336 6 6.75 6H8.25C8.85 6 9.262 6.24 9.54 6.587C9.694 6.78 9.814 7.017 9.892 7.277H6.75C6.55109 7.277 6.36032 7.35602 6.21967 7.49667C6.07902 7.63732 6 7.82809 6 8.027C6 8.22591 6.07902 8.41668 6.21967 8.55733C6.36032 8.69798 6.55109 8.777 6.75 8.777H9.892C9.82099 9.02845 9.70141 9.26354 9.54 9.469C9.262 9.816 8.85 10.056 8.25 10.056H6.75C6.60316 10.0561 6.45958 10.0992 6.33706 10.1802C6.21453 10.2611 6.11845 10.3762 6.06074 10.5112C6.00303 10.6462 5.98622 10.7952 6.01239 10.9397C6.03857 11.0842 6.10659 11.2178 6.208 11.324L10.458 15.768C10.5968 15.9056 10.7838 15.9835 10.9791 15.9853C11.1745 15.9871 11.3629 15.9125 11.5042 15.7775C11.6454 15.6425 11.7284 15.4577 11.7355 15.2624C11.7426 15.0672 11.6731 14.8769 11.542 14.732L8.497 11.547C8.92582 11.5246 9.34496 11.4112 9.72666 11.2145C10.1084 11.0178 10.4439 10.7422 10.711 10.406C11.082 9.93117 11.3297 9.37186 11.432 8.778H12.75C12.9489 8.778 13.1397 8.69898 13.2803 8.55833C13.421 8.41768 13.5 8.22691 13.5 8.028C13.5 7.82909 13.421 7.63832 13.2803 7.49767C13.1397 7.35702 12.9489 7.278 12.75 7.278H11.432C11.3517 6.82678 11.1904 6.39381 10.956 6H12.75C12.9489 6 13.1397 5.92098 13.2803 5.78033C13.421 5.63968 13.5 5.44891 13.5 5.25C13.5 5.05109 13.421 4.86032 13.2803 4.71967C13.1397 4.57902 12.9489 4.5 12.75 4.5H6.75C6.55109 4.5 6.36032 4.57902 6.21967 4.71967C6.07902 4.86032 6 5.05109 6 5.25Z" fill="#A8A5A0"/>
</svg>
