<svg width="16" height="20" viewBox="0 0 16 20" fill="none" xmlns="http://www.w3.org/2000/svg">
<path d="M15.3333 5.75L9.58333 0H1.91667C1.40834 0 0.920823 0.201934 0.561379 0.561379C0.201934 0.920823 0 1.40834 0 1.91667V17.25C0 17.7583 0.201934 18.2458 0.561379 18.6053C0.920823 18.9647 1.40834 19.1667 1.91667 19.1667H13.4167C13.925 19.1667 14.4125 18.9647 14.772 18.6053C15.1314 18.2458 15.3333 17.7583 15.3333 17.25V5.75ZM4.79167 16.2917H2.875V7.66667H4.79167V16.2917ZM8.625 16.2917H6.70833V10.5417H8.625V16.2917ZM12.4583 16.2917H10.5417V13.4167H12.4583V16.2917ZM9.58333 6.70833H8.625V1.91667L13.4167 6.70833H9.58333Z" fill="#A8A5A0"/>
</svg>
