<svg width="20" height="20" viewBox="0 0 20 20" fill="none" xmlns="http://www.w3.org/2000/svg">
<path fill-rule="evenodd" clip-rule="evenodd" d="M9.58332 1.05295e-10C10.8418 -5.89914e-06 12.088 0.24787 13.2507 0.729474C14.4134 1.21108 15.4699 1.91698 16.3598 2.80687C17.2497 3.69677 17.9556 4.75323 18.4372 5.91593C18.9188 7.07864 19.1667 8.32482 19.1667 9.58332C19.1667 14.8761 14.8761 19.1667 9.58332 19.1667C4.29062 19.1667 0 14.8761 0 9.58332C0 4.29062 4.29062 1.05295e-10 9.58332 1.05295e-10ZM10.5417 10.5417H8.625C6.25245 10.5417 4.21556 11.9786 3.33702 14.0298C4.72708 15.979 7.00678 17.25 9.58332 17.25C12.1599 17.25 14.4396 15.979 15.8297 14.0296C14.9511 11.9786 12.9142 10.5417 10.5417 10.5417ZM9.58332 2.875C7.99551 2.875 6.70832 4.16219 6.70832 5.75C6.70832 7.33781 7.99551 8.625 9.58332 8.625C11.1711 8.625 12.4583 7.33781 12.4583 5.75C12.4583 4.16219 11.1712 2.875 9.58332 2.875Z" fill="#A8A5A0"/>
</svg>
